<?xml version="1.0" encoding="utf-8"?>
<!-- Generator: Adobe Illustrator 27.5.0, SVG Export Plug-In . SVG Version: 6.00 Build 0)  -->
<svg version="1.1" id="Capa_1" xmlns="http://www.w3.org/2000/svg" xmlns:xlink="http://www.w3.org/1999/xlink" x="0px" y="0px"
	 viewBox="0 0 425.2 425.2" style="enable-background:new 0 0 425.2 425.2;" xml:space="preserve">
<rect x="0.002" y="0.002" style="fill:#234959;" width="425.197" height="425.197"/>
<g>
	<path style="opacity:0.5;fill:#FFFFFF;" d="M349.34,230.811c0,75.519-61.219,136.74-136.738,136.74
		c-75.521,0-136.742-61.222-136.742-136.74c0-75.52,61.221-136.74,136.742-136.74C288.121,94.07,349.34,155.291,349.34,230.811z"/>
	<path style="fill:#FFFFFF;" d="M338.404,230.811c0,69.479-56.322,125.803-125.803,125.803
		c-69.482,0-125.805-56.324-125.805-125.803c0-69.48,56.322-125.805,125.805-125.805
		C282.082,105.006,338.404,161.33,338.404,230.811z"/>
</g>
<g>
	<g>
		<g>
			<path style="fill:none;stroke:#FFFFFF;stroke-miterlimit:10;" d="M217.803,51.807c-0.142-0.471-0.219-0.964-0.239-1.476"/>
			<path style="fill:none;stroke:#FFFFFF;stroke-miterlimit:10;stroke-dasharray:3.001,3.001;" d="M217.986,47.373
				c2.004-6.762,10.531-15.057,14.406-17.686c19.533-13.254,57.686-19.164,74.689,1.725c13.85,17.016,2.879,38.493-0.184,57.1
				c-3.205,19.473,0.004,43.081,14.455,57.426c13.152,13.055,33.15,18.859,51.082,13.823c8.59-2.413,20.623-7.686,26.957-14.161
				c7.096-7.255,12.025-26.635-5.039-24.008c-12.744,1.965-17.455,18.373-17.469,29.26c-0.02,16.474,13.197,30.586,19.582,44.953
				c13.287,29.889,13.619,88.199-18.969,106.904c-29.973,17.205-76.485,9.598-86.455-27.533"/>
			<path style="fill:none;stroke:#FFFFFF;stroke-miterlimit:10;" d="M290.672,273.713c-0.114-0.483-0.224-0.972-0.326-1.465"/>
		</g>
	</g>
	<g>
		<path style="fill:#E6A136;" d="M225.023,21.79c-5.887,0-10.66,4.773-10.66,10.661c0,5.89,4.773,10.663,10.66,10.663
			c5.891,0,10.666-4.773,10.666-10.663C235.689,26.563,230.914,21.79,225.023,21.79z M225.023,40.982
			c-4.707,0-8.525-3.82-8.525-8.531c0-4.71,3.818-8.529,8.525-8.529c4.713,0,8.531,3.819,8.531,8.529
			C233.555,37.162,229.736,40.982,225.023,40.982z"/>
		<g>
			<path style="fill:#062D35;" d="M207.664,17.363l-37.066,33.445c-2.467,2.227-2.662,6.035-0.436,8.504l11.15,12.359
				c2.23,2.468,6.035,2.663,8.504,0.436l37.064-33.445c2.469-2.229,2.664-6.035,0.439-8.504L216.166,17.8
				C213.939,15.33,210.131,15.135,207.664,17.363z M220.232,28.476c0.121,1.797-1.24,3.352-3.037,3.471
				c-1.797,0.121-3.352-1.238-3.471-3.035c-0.121-1.799,1.238-3.352,3.035-3.473C218.559,25.32,220.111,26.68,220.232,28.476z"/>
			<path style="fill:#FFFFFF;" d="M214.236,36.094c2.221,2.477,2.016,6.283-0.461,8.504l-23.404,20.994
				c-2.477,2.221-6.285,2.014-8.504-0.463l-4.916-5.477c-2.219-2.477-2.012-6.282,0.465-8.504l23.404-20.994
				c2.477-2.22,6.283-2.014,8.504,0.463L214.236,36.094z"/>
			<g>
				<path style="fill:#121923;" d="M187.15,56.39l1.607,1.794l2.074-1.86l-1.608-1.794l0.56-0.502l3.846,4.287l-0.561,0.502
					l-1.803-2.01l-2.073,1.859l1.803,2.011l-0.554,0.497l-3.845-4.287L187.15,56.39z"/>
				<path style="fill:#121923;" d="M195.949,53.408c1.021,1.14,0.678,2.344-0.066,3.011c-0.834,0.747-2.023,0.713-2.896-0.261
					c-0.924-1.029-0.792-2.238,0.061-3.003C193.931,52.362,195.105,52.469,195.949,53.408z M193.535,55.632
					c0.605,0.675,1.449,0.835,1.996,0.345c0.535-0.479,0.484-1.342-0.137-2.035c-0.469-0.521-1.322-0.949-1.984-0.355
					C192.749,54.18,193.01,55.047,193.535,55.632z"/>
				<path style="fill:#121923;" d="M195.176,49.775l0.793,0.885l0.801-0.72l0.383,0.427l-0.801,0.719l1.488,1.66
					c0.343,0.382,0.645,0.5,0.957,0.221c0.145-0.131,0.236-0.246,0.289-0.328l0.402,0.396c-0.067,0.142-0.211,0.327-0.428,0.521
					c-0.261,0.233-0.545,0.34-0.814,0.307c-0.309-0.023-0.61-0.244-0.936-0.608l-1.506-1.68l-0.478,0.428l-0.382-0.426l0.477-0.428
					l-0.662-0.738L195.176,49.775z"/>
				<path style="fill:#121923;" d="M199.145,50.773c0.691,0.746,1.455,0.624,2.014,0.121c0.401-0.359,0.58-0.646,0.711-0.923
					l0.454,0.314c-0.118,0.267-0.364,0.67-0.854,1.109c-0.948,0.851-2.072,0.735-2.905-0.193c-0.833-0.929-0.942-2.151-0.045-2.956
					c1.004-0.9,2.064-0.257,2.572,0.309c0.103,0.114,0.17,0.216,0.215,0.278L199.145,50.773z M200.426,48.9
					c-0.313-0.361-0.963-0.778-1.592-0.213c-0.566,0.508-0.347,1.251-0.043,1.679L200.426,48.9z"/>
				<path style="fill:#121923;" d="M199.255,45.117l0.56-0.502l4.051,4.518l-0.559,0.502L199.255,45.117z"/>
			</g>
			<g>
				<g>
					<polygon style="fill:#FBB040;" points="181.293,51.471 183.156,52.218 184.828,51.105 184.693,53.109 186.27,54.355 
						184.32,54.848 183.621,56.73 182.555,55.029 180.547,54.947 181.832,53.404 					"/>
					<path style="fill:#FFFFFF;" d="M184.709,53.658l-0.59-0.467l0.078-1.147l-0.957,0.638l-1.068-0.428l0.283,1.01
						C183.135,53.637,183.967,53.828,184.709,53.658z"/>
					<path style="fill:#D1D3D4;" d="M184.535,54.395c-0.867,0.197-1.645,0.129-2.363-0.414c-0.178-0.136-0.32-0.289-0.439-0.455
						l-1.186,1.422l2.008,0.082l1.066,1.701l0.699-1.883l1.949-0.492l-0.57-0.45C185.34,54.133,184.936,54.305,184.535,54.395z"/>
				</g>
				<g>
					<polygon style="fill:#FBB040;" points="186.148,47.113 188.014,47.861 189.686,46.749 189.551,48.753 191.127,49.999 
						189.178,50.49 188.479,52.374 187.41,50.674 185.404,50.59 186.691,49.047 					"/>
					<path style="fill:#FFFFFF;" d="M189.566,49.303l-0.59-0.467l0.076-1.148l-0.955,0.637l-1.068-0.428l0.283,1.012
						C187.992,49.279,188.826,49.473,189.566,49.303z"/>
					<path style="fill:#D1D3D4;" d="M189.393,50.039c-0.867,0.195-1.645,0.127-2.363-0.416c-0.178-0.135-0.32-0.287-0.438-0.455
						l-1.188,1.422l2.006,0.084l1.068,1.7l0.699-1.884l1.949-0.491l-0.572-0.45C190.197,49.777,189.793,49.947,189.393,50.039z"/>
				</g>
				<g>
					<polygon style="fill:#FBB040;" points="191.006,42.758 192.871,43.504 194.543,42.393 194.408,44.396 195.982,45.643 
						194.035,46.135 193.336,48.018 192.266,46.317 190.262,46.233 191.549,44.691 					"/>
					<path style="fill:#FFFFFF;" d="M194.426,44.946l-0.594-0.468l0.076-1.146l-0.955,0.637l-1.064-0.428l0.281,1.011
						C192.85,44.924,193.682,45.116,194.426,44.946z"/>
					<path style="fill:#D1D3D4;" d="M194.25,45.682c-0.867,0.196-1.646,0.129-2.363-0.416c-0.178-0.135-0.32-0.287-0.438-0.454
						l-1.188,1.422l2.004,0.084l1.07,1.7l0.699-1.883l1.947-0.492l-0.57-0.451C195.055,45.42,194.65,45.592,194.25,45.682z"/>
				</g>
				<g>
					<polygon style="fill:#FBB040;" points="195.863,38.402 197.727,39.148 199.4,38.037 199.266,40.039 200.838,41.287 
						198.891,41.777 198.191,43.66 197.125,41.961 195.115,41.877 196.404,40.335 					"/>
					<path style="fill:#FFFFFF;" d="M199.281,40.59l-0.59-0.468l0.074-1.146l-0.957,0.636l-1.066-0.428l0.283,1.011
						C197.707,40.566,198.539,40.76,199.281,40.59z"/>
					<path style="fill:#D1D3D4;" d="M199.105,41.326c-0.865,0.195-1.645,0.129-2.363-0.416c-0.176-0.135-0.32-0.288-0.438-0.455
						l-1.189,1.422l2.01,0.084l1.066,1.699l0.699-1.883l1.947-0.49l-0.57-0.452C199.91,41.064,199.508,41.235,199.105,41.326z"/>
				</g>
				<g>
					<polygon style="fill:#FBB040;" points="200.721,34.046 202.584,34.792 204.256,33.68 204.123,35.684 205.695,36.93 
						203.748,37.421 203.051,39.304 201.98,37.604 199.977,37.521 201.262,35.979 					"/>
					<path style="fill:#FFFFFF;" d="M204.137,36.234l-0.592-0.469l0.078-1.146l-0.957,0.635l-1.066-0.427l0.283,1.012
						C202.563,36.21,203.396,36.402,204.137,36.234z"/>
					<path style="fill:#D1D3D4;" d="M203.963,36.969c-0.869,0.197-1.645,0.131-2.363-0.415c-0.178-0.135-0.32-0.288-0.439-0.454
						l-1.184,1.421l2.004,0.083l1.07,1.7l0.697-1.883l1.947-0.491l-0.57-0.451C204.768,36.707,204.363,36.879,203.963,36.969z"/>
				</g>
			</g>
		</g>
		<g>
			<path style="fill:#E6A136;" d="M221.348,64.096V94.07l3.266-1.301c0,0,3.313-1.889,2.58-2.431
				c-2.014-1.489,0.105-2.929,0.105-2.929v-2.283v-4.093c-2.623-1.304-2.686-2.978-2.686-2.978l2.686-2.605v-2.232l1.404-1.676
				l-2.014-4.838c-2.014,0.373,2.014-2.609,2.014-2.609H221.348z"/>
			<polygon style="fill:#D1D3D4;" points="224.146,64.096 222.643,64.096 222.643,93.555 224.146,92.953 			"/>
			<path style="fill:#E6A136;" d="M225.023,40.857c-6.875,0-12.449,5.576-12.449,12.452c0,6.878,5.574,12.452,12.449,12.452
				c6.881,0,12.453-5.574,12.453-12.452C237.477,46.434,231.904,40.857,225.023,40.857z M229.121,52.369h-8.189
				c-0.857,0-1.549-0.693-1.549-1.551c0-0.854,0.691-1.549,1.549-1.549h8.189c0.855,0,1.549,0.694,1.549,1.549
				C230.67,51.676,229.977,52.369,229.121,52.369z"/>
			<path style="fill:#FFFFFF;" d="M223.918,40.909c-1.332,1.126-2.523,2.384-3.385,3.839c-1.027,1.729-1.291,3.568-0.936,5.291
				c0.27-0.459,0.762-0.77,1.334-0.77h8.189c0.855,0,1.549,0.694,1.549,1.549c0,0.858-0.693,1.551-1.549,1.551h-8.189
				c-0.168,0-0.328-0.035-0.48-0.084c0.633,1.111,1.543,2.115,2.697,2.928c2.871,2.025,7.246,3.029,11.58,1.658
				c1.643-0.52,2.133-2.738,2.719-4.393c-0.428-6.488-5.824-11.621-12.424-11.621C224.652,40.857,224.283,40.877,223.918,40.909z"/>
			<path style="fill:#D1D3D4;" d="M235.414,59.409c-4.096,2.519-9.949,0.632-13.494-2.093c-3.771-2.898-6.395-7.686-4.24-12.37
				c0.447-0.974,1.014-1.871,1.656-2.711c-4.016,2.066-6.762,6.249-6.762,11.074c0,6.878,5.574,12.452,12.449,12.452
				c4.875,0,9.092-2.801,11.137-6.881C235.922,59.07,235.674,59.25,235.414,59.409z"/>
		</g>
		<path style="fill:#E6A136;" d="M218.043,27.56c1.545-2.197,4.094-3.639,6.98-3.639c4.713,0,8.531,3.819,8.531,8.529
			c0,1.822-0.574,3.507-1.549,4.893h2.488c0.758-1.467,1.195-3.127,1.195-4.893c0-5.888-4.775-10.661-10.666-10.661
			c-3.74,0-7.027,1.933-8.932,4.849h1.951V27.56z"/>
	</g>
	<g>
		<path style="fill:#3C2415;" d="M386.994,113.896c0,1.843-1.494,3.337-3.338,3.337h-58.955c-1.844,0-3.338-1.494-3.338-3.337
			V74.129c0-1.844,1.494-3.338,3.338-3.338h58.955c1.844,0,3.338,1.494,3.338,3.338V113.896z"/>
		<path style="fill:#D1D3D4;" d="M382.471,104.732c-7.479,3.277-15.992,3.959-23.988,2.477c-4.785-0.887-9.535-2.525-13.643-5.174
			c-4.594-2.959-8.191-7.257-10.979-11.918c-3.287-5.502-6.102-12.469-6.621-19.326h-2.539c-1.844,0-3.338,1.494-3.338,3.338v39.767
			c0,1.843,1.494,3.337,3.338,3.337h58.955c1.844,0,3.338-1.494,3.338-3.337v-11.666
			C385.584,103.191,384.07,104.031,382.471,104.732z"/>
		<path style="opacity:0.2;fill:#FFFFFF;" d="M378.672,73.85h-24.494c2.148,2.145,4.133,4.457,5.975,6.863
			c3.742,4.888,6.728,10.293,8.42,16.237c0.627,2.208,1.08,4.441,1.371,6.684c4.244-0.725,8.254-2.271,11.563-4.703V76.684
			C381.506,75.119,380.236,73.85,378.672,73.85z"/>
		<g>
			<g>
				<rect x="332.607" y="70.791" style="fill:#B07341;" width="6.119" height="46.441"/>
				<rect x="335.666" y="70.791" style="fill:#BCBEC0;" width="3.06" height="46.441"/>
			</g>
			<g>
				<rect x="369.631" y="70.791" style="fill:#B07341;" width="6.119" height="46.441"/>
				<rect x="372.691" y="70.791" style="fill:#BCBEC0;" width="3.059" height="46.441"/>
			</g>
		</g>
		<path style="fill:#1E0500;" d="M346.313,70.791v-2.957c0-1.15,0.932-2.082,2.082-2.082h11.568c1.148,0,2.082,0.932,2.082,2.082
			v2.957h4.738v-5.84c0-1.843-1.494-3.338-3.336-3.338H344.91c-1.842,0-3.336,1.495-3.336,3.338v5.84H346.313z"/>
	</g>
	<g>
		<path style="fill:#353F4B;" d="M341.865,342.74v3.558c0,1.774,1.439,3.213,3.213,3.213h32.772c1.775,0,3.213-1.439,3.213-3.213
			v-3.558H341.865z"/>
		<path style="fill:#EC524F;" d="M381.063,342.685c0,1.775-1.438,3.212-3.213,3.212h-32.772c-1.773,0-3.213-1.438-3.213-3.212
			v-51.177c0-1.775,1.439-3.213,3.213-3.213h32.772c1.775,0,3.213,1.438,3.213,3.213V342.685z"/>
		<path style="fill:#D1D3D4;" d="M360.408,288.236h-15.33c-1.773,0-3.213,1.438-3.213,3.213v51.177c0,1.775,1.439,3.213,3.213,3.213
			h15.33V288.236z"/>
		<path style="fill:#D1D3D4;" d="M351.228,288.236h-6.15c-1.773,0-3.213,1.438-3.213,3.213v51.177c0,1.775,1.439,3.213,3.213,3.213
			h6.15V288.236z"/>
		<g>
			<rect x="346.73" y="324.037" style="fill:#A43634;" width="29.467" height="15.376"/>
			<rect x="348.291" y="325.643" style="fill:#EC524F;" width="26.346" height="12.163"/>
		</g>
		<g>
			<rect x="352.01" y="310.266" style="fill:#A43634;" width="18.91" height="9.869"/>
			<rect x="353.01" y="311.297" style="fill:#EC524F;" width="16.908" height="7.807"/>
		</g>
		<rect x="351.228" y="285.023" style="fill:#353F4B;" width="19.621" height="3.272"/>
		<rect x="351.918" y="274.696" style="fill:#171F29;" width="1.721" height="10.327"/>
		<rect x="367.867" y="274.696" style="fill:#171F29;" width="1.721" height="10.327"/>
		<path style="fill:#171F29;" d="M370.553,274.982c0,0.856-0.693,1.55-1.549,1.55h-15.928c-0.855,0-1.549-0.693-1.549-1.55l0,0
			c0-0.855,0.693-1.549,1.549-1.549h15.928C369.859,273.434,370.553,274.127,370.553,274.982L370.553,274.982z"/>
		<path style="fill:#FFFFFF;" d="M368.728,301.03c0,1.806-2.904,3.271-6.484,3.271c-3.58,0-6.482-1.465-6.482-3.271
			c0-1.806,2.902-3.271,6.482-3.271C365.824,297.76,368.728,299.225,368.728,301.03z"/>
		<g>
			<polygon style="fill:#1A222C;" points="346.586,349.511 348.27,354.023 350.717,354.023 351.863,349.511 			"/>
			<polygon style="fill:#1A222C;" points="371.064,349.511 372.748,354.023 375.195,354.023 376.342,349.511 			"/>
		</g>
		<rect x="349.225" y="327.021" style="fill:#FFFFFF;" width="24.48" height="0.573"/>
		<rect x="353.639" y="312.103" style="fill:#FFFFFF;" width="15.49" height="0.574"/>
	</g>
	<g>
		<g>
			<path style="fill:#F4C739;" d="M118.064,101.326c0,1.055-0.855,1.91-1.91,1.91H44.354c-1.057,0-1.912-0.855-1.912-1.91l0,0
				c0-1.056,0.856-1.912,1.912-1.912h71.801C117.209,99.414,118.064,100.271,118.064,101.326L118.064,101.326z"/>
			<path style="fill:#F99E37;" d="M118.049,101.564c0.01-0.078,0.016-0.158,0.016-0.238c0-1.056-0.855-1.912-1.91-1.912H44.354
				c-1.057,0-1.912,0.856-1.912,1.912c0,0.08,0.006,0.16,0.018,0.238H118.049z"/>
		</g>
		<g>
			<path style="fill:#F99E37;" d="M110.42,99.719h-4.777V66.337c0-10.933-8.895-19.827-19.828-19.827H75.543
				c-10.934,0-19.826,8.895-19.826,19.827v33.382h-4.779V66.337c0-13.567,11.039-24.605,24.605-24.605h10.271
				c13.568,0,24.605,11.038,24.605,24.605V99.719z"/>
		</g>
		<path style="fill:#F4C739;" d="M85.814,41.731H75.543c-13.566,0-24.605,11.038-24.605,24.605v33.382h2.23V67.215
			c0-12.551,10.209-22.761,22.76-22.761h9.502c12.551,0,22.762,10.21,22.762,22.761v32.504h2.229V66.337
			C110.42,52.77,99.383,41.731,85.814,41.731z"/>
		<g>
			<g>
				<g>
					<path style="fill:#180100;" d="M57.246,108.316c0,2.56-2.074,4.635-4.637,4.635c-2.559,0-4.635-2.075-4.635-4.635
						c0-2.561,2.076-4.636,4.635-4.636C55.172,103.681,57.246,105.756,57.246,108.316z"/>
					<path style="fill:#D1D3D4;" d="M55.049,108.316c0,1.346-1.092,2.438-2.439,2.438c-1.346,0-2.438-1.092-2.438-2.438
						c0-1.347,1.092-2.438,2.438-2.438C53.957,105.878,55.049,106.97,55.049,108.316z"/>
				</g>
				<path style="fill:#939598;" d="M50.137,103.236l1.455,4.033c0,0,1.018,1.717,2.313,0.163l1.18-4.196H50.137z"/>
			</g>
			<g>
				<g>
					<path style="fill:#180100;" d="M112.531,108.316c0,2.56-2.074,4.635-4.635,4.635c-2.561,0-4.637-2.075-4.637-4.635
						c0-2.561,2.076-4.636,4.637-4.636C110.457,103.681,112.531,105.756,112.531,108.316z"/>
					<path style="fill:#D1D3D4;" d="M110.334,108.316c0,1.346-1.092,2.438-2.438,2.438c-1.348,0-2.438-1.092-2.438-2.438
						c0-1.347,1.09-2.438,2.438-2.438C109.242,105.878,110.334,106.97,110.334,108.316z"/>
				</g>
				<path style="fill:#939598;" d="M105.422,103.236l1.455,4.033c0,0,1.02,1.717,2.313,0.163l1.182-4.196H105.422z"/>
			</g>
		</g>
		<g>
			<rect x="79.008" y="38.676" style="fill:#F4C739;" width="3.344" height="3.056"/>
			<path style="fill:#F4C739;" d="M84.859,35.804c0,2.309-1.871,4.181-4.18,4.181c-2.309,0-4.182-1.872-4.182-4.181
				c0-2.31,1.873-4.181,4.182-4.181C82.988,31.623,84.859,33.494,84.859,35.804z"/>
			<path style="fill:#F99E37;" d="M84.168,37.48c-1.445,0.165-2.883-0.391-3.998-1.295c-1.15-0.934-1.986-2.348-2.049-3.684
				c-0.984,0.765-1.623,1.957-1.623,3.302c0,2.309,1.873,4.181,4.182,4.181c1.736,0,3.225-1.058,3.855-2.564
				C84.416,37.445,84.293,37.465,84.168,37.48z"/>
			<path style="fill:#FFFFFF;" d="M80.076,32.656c-0.383,0.928,0.32,2.129,1.248,2.789c1.059,0.75,2.103,0.862,2.986,0.449
				c0-0.009,0.002-0.017,0.002-0.025c0-1.844-1.494-3.338-3.338-3.338C80.662,32.531,80.361,32.576,80.076,32.656z"/>
		</g>
	</g>
	<g>
		<rect x="51.846" y="222.219" style="fill:#710F18;" width="14.404" height="5.938"/>
		<g>
			<path style="fill:#FCC3A2;" d="M77.125,200.967c-0.396,2.107,0.357,4.018,1.682,4.266c1.324,0.25,2.721-1.255,3.115-3.362
				c0.396-2.107-0.357-4.017-1.682-4.266C78.916,197.355,77.521,198.861,77.125,200.967z"/>
			<path style="fill:#D1D3D4;" d="M79.512,199.656c0,0,0.088,0.043,0.244,0.1c0.074,0.027,0.186,0.047,0.254,0.125
				c0.07,0.073,0.158,0.104,0.213,0.209c0.07,0.082,0.123,0.182,0.156,0.304c0.059,0.098,0.039,0.259,0.078,0.382
				c-0.006,0.289,0,0.605-0.09,0.924c-0.055,0.322-0.166,0.634-0.283,0.913c-0.121,0.283-0.271,0.508-0.422,0.681
				c-0.08,0.061-0.158,0.141-0.242,0.176c-0.08,0.014-0.172,0.075-0.24,0.048c-0.145-0.018-0.254-0.026-0.254-0.026
				s0.059,0.066,0.207,0.179c0.07,0.067,0.189,0.064,0.324,0.1c0.137,0.019,0.297-0.022,0.453-0.081
				c0.301-0.141,0.59-0.402,0.795-0.727c0.221-0.318,0.369-0.698,0.455-1.096c0.041-0.199,0.064-0.402,0.064-0.609
				c0.023-0.199-0.043-0.41-0.066-0.604c-0.07-0.197-0.113-0.389-0.248-0.545c-0.059-0.08-0.111-0.158-0.172-0.225
				c-0.078-0.053-0.152-0.104-0.223-0.152c-0.127-0.111-0.314-0.117-0.438-0.142c-0.135-0.034-0.225,0.002-0.307,0.012
				C79.607,199.629,79.512,199.656,79.512,199.656z"/>
		</g>
		<g>
			<path style="fill:#FCC3A2;" d="M42.943,200.967c0.399,2.107-0.357,4.018-1.682,4.266c-1.326,0.25-2.721-1.255-3.117-3.362
				c-0.395-2.107,0.359-4.017,1.684-4.266C41.152,197.355,42.547,198.861,42.943,200.967z"/>
			<path style="fill:#D1D3D4;" d="M40.555,199.656c0,0-0.086,0.043-0.242,0.1c-0.074,0.027-0.188,0.047-0.252,0.125
				c-0.072,0.073-0.158,0.104-0.215,0.209c-0.072,0.082-0.123,0.182-0.158,0.304c-0.057,0.098-0.037,0.259-0.076,0.382
				c0.004,0.289,0,0.605,0.09,0.924c0.055,0.322,0.166,0.634,0.285,0.913c0.119,0.283,0.269,0.508,0.42,0.681
				c0.08,0.061,0.158,0.141,0.24,0.176c0.082,0.014,0.174,0.075,0.244,0.048c0.143-0.018,0.252-0.026,0.252-0.026
				s-0.059,0.066-0.207,0.179c-0.072,0.067-0.189,0.064-0.326,0.1c-0.135,0.019-0.295-0.022-0.453-0.081
				c-0.301-0.141-0.588-0.402-0.793-0.727c-0.219-0.318-0.369-0.698-0.457-1.096c-0.041-0.199-0.064-0.402-0.063-0.609
				c-0.023-0.199,0.043-0.41,0.066-0.604c0.072-0.197,0.111-0.389,0.246-0.545c0.059-0.08,0.111-0.158,0.174-0.225
				c0.076-0.053,0.152-0.104,0.225-0.152c0.127-0.111,0.311-0.117,0.436-0.142c0.135-0.034,0.223,0.002,0.307,0.012
				C40.461,199.629,40.555,199.656,40.555,199.656z"/>
		</g>
		<rect x="55.117" y="219.232" style="fill:#FCC3A2;" width="9.189" height="7.775"/>
		<path style="fill:#D1D3D4;" d="M64.307,220.035v-0.803h-9.189v5.974C56.645,221.918,60.602,220.164,64.307,220.035z"/>
		<path style="fill:#FCC3A2;" d="M79.449,195.021c0,13.757-8.342,24.908-19.729,24.908c-11.391,0-19.514-11.559-19.514-25.314
			C40,176.34,48.33,170.113,59.721,170.113C71.107,170.113,80.451,175.713,79.449,195.021z"/>
		<path style="fill:#FCC3A2;" d="M63.717,225.293h-4.006h-4.002c0,0-20.658,3.23-21.725,13.43v2.07h25.726h25.729v-2.07
			C84.373,228.522,63.717,225.293,63.717,225.293z"/>
		<polygon style="fill:#FCC3A2;" points="75.191,249.523 75.625,240.793 43.799,240.793 44.232,249.523 		"/>
		<path style="fill:#FFFFFF;" d="M43.004,249.523l0.736-5.221l0.049,0.889l-0.07,4.332h32l-0.072-4.844l0.5,4.844h10.018
			l-0.787-10.801c-0.879-8.406-15.061-12.077-20.023-13.109c-7.037,2.717-12.199,0.17-12.199,0.17
			c-5.527,1.232-18.399,4.945-19.234,12.939l-0.715,10.311l7.637,0.49H43.004z"/>
		<polygon style="fill:#FFFFFF;" points="75.572,243.959 75.572,243.957 75.572,243.959 		"/>
		<path style="fill:#270000;" d="M77.092,202.469h1.35c1.635-7.242,2.029-14.207,2.029-21.595c0-4.474-2.383-9.255-5.977-11.952
			c-6.373-4.78-15.891-5.477-23.32-3.092c-6.729,2.162-12.199,7.607-12.199,15.044c0,7.388,0.396,14.353,2.031,21.595h1.348
			c-2.66-11.443,0.891-19.033,0.891-19.033c0.854-2.276,2.563-3.984,4.838-4.838c0,0,9.881,6.033,28.938,5.443
			C77.02,184.041,79.01,194.184,77.092,202.469z"/>
		<g>
			<polygon style="fill:#FFFFFF;" points="55.117,222.97 50.695,226.387 56.625,229.487 59.863,224.365 			"/>
			<polygon style="fill:#FFFFFF;" points="64.469,222.97 68.891,226.387 62.961,229.487 59.723,224.365 			"/>
		</g>
		<path style="fill:#EC524F;" d="M86.721,249.523l-0.533-11.016c-0.879-8.404-16.061-11.862-21.025-12.895l-6.223,23.91H86.721z"/>
		<path style="fill:#EC524F;" d="M43.02,249.523l0.041-0.401v0.401h15.51l-5.607-23.74c-5.527,1.232-18.396,4.945-19.232,12.939
			L33.1,249.523H43.02z"/>
		<polygon style="fill:#EC524F;" points="75.381,243.959 75.381,243.957 75.381,243.959 		"/>
		<polygon style="fill:#CB3441;" points="58.563,249.523 51.846,222.219 43.508,228.803 58.217,249.523 		"/>
		<polygon style="fill:#CB3441;" points="59.234,249.523 74.369,228.361 66.25,222.219 55.428,249.523 		"/>
		<g>
			<g>
				<g>
					<path style="fill:#EC524F;" d="M59.506,225.893l-5.232-2.622c0,0-1.797-0.708-1.851,2.562c0,0-0.641,5.912,3.162,4.851
						l3.922-2.538V225.893z"/>
					<path style="fill:#D1D3D4;" d="M59.031,225.654c-0.053,0.5-0.172,1-0.367,1.492c-0.5,1.267-1.613,2.147-3.014,2.059
						c-1.451-0.091-2.17-1.583-2.215-2.87c-0.027-0.78,0.035-1.608,0.348-2.332c0.133-0.311,0.313-0.524,0.512-0.723l-0.021-0.011
						c0,0-1.797-0.708-1.851,2.562c0,0-0.641,5.912,3.162,4.851l3.922-2.538v-2.252L59.031,225.654z"/>
					<path style="fill:#D1D3D4;" d="M57.805,226.295l-3.014-1.307c0,0-0.49,0-0.271,0.49L57.805,226.295z"/>
					<path style="fill:#D1D3D4;" d="M57.695,226.768l-3.285-0.039c0,0-0.451,0.19-0.06,0.558L57.695,226.768z"/>
					<path style="fill:#D1D3D4;" d="M57.695,227.512l-2.068,0.924c0,0-0.229,0.25,0.121,0.367L57.695,227.512z"/>
				</g>
				<g>
					<path style="fill:#EC524F;" d="M59.887,225.893l5.231-2.622c0,0,1.799-0.708,1.854,2.562c0,0,0.641,5.912-3.162,4.851
						l-3.922-2.538V225.893z"/>
					<path style="fill:#D1D3D4;" d="M60.361,225.654c0.051,0.5,0.172,1,0.365,1.492c0.502,1.267,1.613,2.147,3.016,2.059
						c1.451-0.091,2.168-1.583,2.215-2.87c0.027-0.78-0.035-1.608-0.348-2.332c-0.133-0.311-0.313-0.524-0.514-0.723l0.021-0.011
						c0,0,1.799-0.708,1.854,2.562c0,0,0.641,5.912-3.162,4.851l-3.922-2.538v-2.252L60.361,225.654z"/>
					<path style="fill:#D1D3D4;" d="M61.586,226.295l3.014-1.307c0,0,0.49,0,0.273,0.49L61.586,226.295z"/>
					<path style="fill:#D1D3D4;" d="M61.695,226.768l3.285-0.039c0,0,0.453,0.19,0.061,0.558L61.695,226.768z"/>
					<path style="fill:#D1D3D4;" d="M61.695,227.512l2.07,0.924c0,0,0.229,0.25-0.123,0.367L61.695,227.512z"/>
				</g>
			</g>
			<path style="fill:#C83A41;" d="M61.902,228.633c0,0.471-0.381,0.855-0.854,0.855h-2.705c-0.473,0-0.855-0.384-0.855-0.855v-2.705
				c0-0.473,0.383-0.855,0.855-0.855h2.705c0.473,0,0.854,0.383,0.854,0.855V228.633z"/>
			<path style="fill:#D1D3D4;" d="M60.398,228.553c-0.803,0-1.512-0.361-1.854-1.111c-0.361-0.799-0.185-1.649,0.23-2.369h-0.432
				c-0.473,0-0.855,0.383-0.855,0.855v2.705c0,0.471,0.383,0.855,0.855,0.855h2.705c0.473,0,0.854-0.384,0.854-0.855v-0.538
				C61.422,228.381,60.861,228.551,60.398,228.553z"/>
			<path style="opacity:0.5;fill:#FFFFFF;" d="M59.867,227.018c0.156,0.226,0.424,0.285,0.684,0.256
				c0.229-0.027,0.805-0.227,0.971-0.512v-0.314c-0.002-0.002-0.002-0.006-0.004-0.008c-0.078-0.129-0.065-0.254-0.002-0.352
				c-0.033-0.301-0.283-0.536-0.594-0.536h-0.715C59.865,225.936,59.539,226.541,59.867,227.018z"/>
		</g>
		<rect x="63.129" y="246.557" style="fill:#CB3441;" width="10.043" height="1.621"/>
		<polygon style="fill:#FFFFFF;" points="64.928,246.557 71.551,241.486 71.551,246.557 		"/>
		<path style="fill:#EC524F;" d="M38.975,178.463c0,0,21.898,5.322,41.496,0v-15.221c0,0-24.336-6.396-41.496,1.256V178.463z"/>
		<path style="fill:#FBB040;" d="M38.975,173.17v0.953c0,0,21.898,0.958,41.496,0v-0.922
			C64.23,173.598,47.895,173.365,38.975,173.17z"/>
		<path style="fill:#FBB040;" d="M38.76,170.783v0.953c0,0,21.896,0.958,41.494,0v-0.924
			C64.014,171.211,47.678,170.977,38.76,170.783z"/>
	</g>
	<path style="fill:none;stroke:#FFFFFF;stroke-miterlimit:10;stroke-dasharray:3;" d="M68.467,325.807
		c-12-4.666-24.666-9.333-26.666-23.333c-2.668-16.665,5.998-29.333,20.664-33.333c21.465-5.855,33.728-15.318,41.578-36.659
		c9.414-25.597,6.725-53.768-13.188-73.544c-12.332-12.246-29.133-16.402-42.387-27.129C22.855,111.078,5.93,67.199,33.17,40.678
		C40.531,33.511,52.82,25,62.822,22.306c11.143-3.001,33.336-4.405,43.748,1.685c14.52,8.494,28.34,21.134,34.736,37.008
		c8.008,19.867-3.199,36.865-10.668,54.822c-7.477,17.977-5.693,35.705,5.162,51.986"/>
	<g>
		<g>
			<path style="fill:#BCBEC0;" d="M78.375,305.777c0,2.212-1.793,4.007-4.006,4.007c-2.213,0-4.006-1.795-4.006-4.007
				c0-2.212,1.793-4.007,4.006-4.007C76.582,301.771,78.375,303.565,78.375,305.777z"/>
			<path style="fill:#D1D3D4;" d="M75.641,307.083h-0.088c-1.572,0-2.883-1.313-2.883-2.885c0-0.982,0.512-1.862,1.279-2.385
				c-2.012,0.212-3.586,1.895-3.586,3.964c0,2.212,1.793,4.007,4.006,4.007c2.213,0,4.006-1.795,4.006-4.007
				c0-0.188-0.029-0.367-0.055-0.548C77.898,306.304,76.85,307.083,75.641,307.083z"/>
			<path style="fill:#FFFFFF;" d="M76.908,304.245c0,0.846-0.686,1.532-1.531,1.532s-1.531-0.687-1.531-1.532
				c0-0.846,0.685-1.531,1.531-1.531S76.908,303.399,76.908,304.245z"/>
		</g>
		<g>
			<rect x="26.475" y="338.913" style="fill:#FFFFFF;" width="95.789" height="3.697"/>
			<rect x="26.475" y="341.227" style="fill:#BCBEC0;" width="95.789" height="1.892"/>
		</g>
		<path style="fill:#D8D9DA;" d="M112.488,338.647c-0.592-17.523-17.426-31.578-38.119-31.578
			c-20.693,0-37.525,14.055-38.117,31.578H112.488z"/>
		<path style="fill:#FFFFFF;" d="M74.805,311.706c-4.176,2.428-7.025,7.257-4.445,12.01c2.279,4.198,6.625,6.13,11.295,6.285
			c6.891,0.229,14.635-1.793,18.752-6.779c-5.188-6.935-14.285-11.537-24.648-11.537C75.438,311.685,75.123,311.696,74.805,311.706z
			"/>
		<path style="fill:#E6E7E8;" d="M75.506,336.564c-8.166-2.278-16.389-9.309-15.938-18.622c0.164-3.405,1.154-6.518,2.762-9.209
			c-14.824,4.205-25.608,15.955-26.078,29.914h76.236c-0.127-3.767-1.01-7.375-2.518-10.718
			C101.594,336.397,87.189,339.823,75.506,336.564z"/>
	</g>
</g>
<g>
	<rect x="126.287" y="127.536" style="fill:#F0D6B3;" width="172.625" height="242.878"/>
	<g>
		<rect x="176.102" y="310.052" style="fill:#2D2932;" width="74.926" height="60.362"/>
		<rect x="179.641" y="314.141" style="fill:#00A9BB;" width="68.17" height="56.273"/>
		<rect x="196.682" y="310.052" style="fill:#2D2932;" width="2.574" height="60.362"/>
		<rect x="227.873" y="310.052" style="fill:#2D2932;" width="2.574" height="60.362"/>
		<rect x="177.756" y="324.108" style="fill:#2D2932;" width="71.664" height="2.572"/>
		<polygon style="opacity:0.5;fill:#FFFFFF;" points="180.604,368.484 180.604,327.432 195.826,327.432 		"/>
		<polygon style="opacity:0.5;fill:#FFFFFF;" points="180.604,323.466 180.604,314.783 195.826,314.783 		"/>
		<polygon style="opacity:0.5;fill:#FFFFFF;" points="231.518,368.484 231.518,327.432 246.738,327.432 		"/>
		<polygon style="opacity:0.5;fill:#FFFFFF;" points="231.518,323.466 231.518,314.783 246.738,314.783 		"/>
		<polygon style="opacity:0.5;fill:#FFFFFF;" points="200.434,368.484 200.434,327.432 210.725,327.432 		"/>
		<polygon style="opacity:0.5;fill:#FFFFFF;" points="215.762,369.074 215.762,328.021 226.053,328.021 		"/>
		<polygon style="opacity:0.5;fill:#FFFFFF;" points="200.434,323.466 200.434,314.783 226.695,314.783 		"/>
		
			<line style="fill:none;stroke:#007F8D;stroke-width:0.6431;stroke-miterlimit:10;" x1="214.369" y1="370.414" x2="214.369" y2="326.681"/>
		<path style="fill:#FFCA3F;" d="M213.098,349.983c0,0.362-0.279,0.654-0.625,0.654l0,0c-0.344,0-0.623-0.292-0.623-0.654v-5.928
			c0-0.36,0.279-0.654,0.623-0.654l0,0c0.346,0,0.625,0.294,0.625,0.654V349.983z"/>
		<path style="fill:#FFCA3F;" d="M216.762,349.983c0,0.362-0.277,0.654-0.625,0.654l0,0c-0.344,0-0.623-0.292-0.623-0.654v-5.928
			c0-0.36,0.279-0.654,0.623-0.654l0,0c0.348,0,0.625,0.294,0.625,0.654V349.983z"/>
	</g>
	<g>
		<rect x="140.271" y="315.212" style="fill:#2D2932;" width="24.867" height="40.089"/>
		<rect x="142.533" y="318.855" style="fill:#00A9BB;" width="20.346" height="32.8"/>
		<polygon style="opacity:0.5;fill:#FFFFFF;" points="144.131,349.081 144.131,321.434 161.279,321.434 		"/>
		<rect x="151.633" y="315.212" style="fill:#2D2932;" width="2.145" height="40.089"/>
		<rect x="141.129" y="334.185" style="fill:#2D2932;" width="23.152" height="2.143"/>
	</g>
	<g>
		<rect x="263.506" y="315.212" style="fill:#2D2932;" width="24.867" height="40.089"/>
		<rect x="265.768" y="318.855" style="fill:#00A9BB;" width="20.346" height="32.8"/>
		<polygon style="opacity:0.5;fill:#FFFFFF;" points="267.365,349.081 267.365,321.434 284.516,321.434 		"/>
		<rect x="274.867" y="315.212" style="fill:#2D2932;" width="2.145" height="40.089"/>
		<rect x="264.363" y="334.185" style="fill:#2D2932;" width="23.152" height="2.143"/>
	</g>
	<g>
		<rect x="142.711" y="221.975" style="fill:#2D2932;" width="32.475" height="44.391"/>
		<rect x="145.664" y="226.01" style="fill:#00A9BB;" width="26.57" height="36.321"/>
		<polygon style="opacity:0.5;fill:#FFFFFF;" points="147.75,259.478 147.75,228.863 170.146,228.863 		"/>
		<rect x="157.549" y="221.975" style="fill:#2D2932;" width="2.799" height="44.391"/>
		<rect x="143.832" y="242.984" style="fill:#2D2932;" width="30.234" height="2.372"/>
	</g>
	<g>
		<rect x="254.648" y="221.975" style="fill:#2D2932;" width="32.475" height="44.391"/>
		<rect x="257.602" y="226.01" style="fill:#00A9BB;" width="26.57" height="36.321"/>
		<polygon style="opacity:0.5;fill:#FFFFFF;" points="259.688,259.478 259.688,228.863 282.084,228.863 		"/>
		<rect x="269.486" y="221.975" style="fill:#2D2932;" width="2.799" height="44.391"/>
		<rect x="255.77" y="242.984" style="fill:#2D2932;" width="30.234" height="2.372"/>
	</g>
	<g>
		<rect x="198.682" y="221.975" style="fill:#2D2932;" width="32.473" height="44.391"/>
		<rect x="201.631" y="226.01" style="fill:#00A9BB;" width="26.572" height="36.321"/>
		<polygon style="opacity:0.5;fill:#FFFFFF;" points="203.719,259.478 203.719,228.863 226.115,228.863 		"/>
		<rect x="213.518" y="221.975" style="fill:#2D2932;" width="2.801" height="44.391"/>
		<rect x="199.801" y="242.984" style="fill:#2D2932;" width="30.234" height="2.372"/>
	</g>
	<g>
		<rect x="142.711" y="157.732" style="fill:#2D2932;" width="32.475" height="44.393"/>
		<rect x="145.664" y="161.768" style="fill:#00A9BB;" width="26.57" height="36.32"/>
		<polygon style="opacity:0.5;fill:#FFFFFF;" points="147.75,195.234 147.75,164.621 170.146,164.621 		"/>
		<rect x="157.549" y="157.732" style="fill:#2D2932;" width="2.799" height="44.393"/>
		<rect x="143.832" y="178.741" style="fill:#2D2932;" width="30.234" height="2.374"/>
	</g>
	<g>
		<rect x="254.648" y="157.732" style="fill:#2D2932;" width="32.475" height="44.393"/>
		<rect x="257.602" y="161.768" style="fill:#00A9BB;" width="26.57" height="36.32"/>
		<polygon style="opacity:0.5;fill:#FFFFFF;" points="259.688,195.234 259.688,164.621 282.084,164.621 		"/>
		<rect x="269.486" y="157.732" style="fill:#2D2932;" width="2.799" height="44.393"/>
		<rect x="255.77" y="178.741" style="fill:#2D2932;" width="30.234" height="2.374"/>
	</g>
	<g>
		<rect x="198.682" y="157.732" style="fill:#2D2932;" width="32.473" height="44.393"/>
		<rect x="201.631" y="161.768" style="fill:#00A9BB;" width="26.572" height="36.32"/>
		<polygon style="opacity:0.5;fill:#FFFFFF;" points="203.719,195.234 203.719,164.621 226.115,164.621 		"/>
		<rect x="213.518" y="157.732" style="fill:#2D2932;" width="2.801" height="44.393"/>
		<rect x="199.801" y="178.741" style="fill:#2D2932;" width="30.234" height="2.374"/>
	</g>
	<rect x="121.246" y="285.596" style="fill:#D3AA97;" width="182.709" height="11.251"/>
	<rect x="121.246" y="124.32" style="fill:#D3AA97;" width="182.709" height="11.253"/>
	<polygon style="fill:#9D7F72;" points="303.955,135.573 121.246,135.573 126.287,144.681 298.912,144.681 	"/>
</g>
</svg>
